<?xml version="1.0" encoding="UTF-8" standalone="no"?>
<svg
   xmlns:dc="http://purl.org/dc/elements/1.1/"
   xmlns:cc="http://creativecommons.org/ns#"
   xmlns:rdf="http://www.w3.org/1999/02/22-rdf-syntax-ns#"
   xmlns:svg="http://www.w3.org/2000/svg"
   xmlns="http://www.w3.org/2000/svg"
   viewBox="0 0 1289.2548 384.56534"
   height="384.56534"
   width="1289.2548"
   xml:space="preserve"
   id="svg2"
   version="1.1"><metadata
     id="metadata8"><rdf:RDF><cc:Work
         rdf:about=""><dc:format>image/svg+xml</dc:format><dc:type
           rdf:resource="http://purl.org/dc/dcmitype/StillImage" /></cc:Work></rdf:RDF></metadata><defs
     id="defs6"><clipPath
       id="clipPath18"
       clipPathUnits="userSpaceOnUse"><path
         id="path16"
         d="M 0,288.424 H 966.94 V 0 H 0 Z" /></clipPath><clipPath
       id="clipPath26"
       clipPathUnits="userSpaceOnUse"><path
         id="path24"
         d="M 180.951,238.434 H 341.592 V 69.3676 H 180.951 Z" /></clipPath><clipPath
       id="clipPath42"
       clipPathUnits="userSpaceOnUse"><path
         id="path40"
         d="m 364.342,288.424 h 27.241 V 73.5804 h -27.241 z" /></clipPath><clipPath
       id="clipPath56"
       clipPathUnits="userSpaceOnUse"><path
         id="path54"
         d="m 424.72,288.424 h 27.242 V 73.5804 H 424.72 Z" /></clipPath><clipPath
       id="clipPath70"
       clipPathUnits="userSpaceOnUse"><path
         id="path68"
         d="M 474.711,238.434 H 633.106 V 69.3676 H 474.711 Z" /></clipPath><clipPath
       id="clipPath86"
       clipPathUnits="userSpaceOnUse"><path
         id="path84"
         d="M 646.78,269.046 H 803.77 V 0 H 646.78 Z" /></clipPath><clipPath
       id="clipPath102"
       clipPathUnits="userSpaceOnUse"><path
         id="path100"
         d="M 808.546,238.434 H 966.94 V 69.3676 H 808.546 Z" /></clipPath></defs><g
     transform="matrix(1.3333333,0,0,-1.3333333,0,384.56533)"
     id="g10"><g
       id="g12"><g
         clip-path="url(#clipPath18)"
         id="g14"><g
           id="g20"><g
             id="g22" /><g
             id="g34"><g
               id="g32"
               clip-path="url(#clipPath26)"><g
                 id="g30"
                 transform="translate(313.7889,151.6543)"><path
                   id="path28"
                   style="fill:#2666ef;fill-opacity:1;fill-rule:nonzero;stroke:none"
                   d="m 0,0 v 3.089 c 0,37.352 -21.344,60.1 -52.517,60.1 -30.893,0 -52.518,-21.343 -52.518,-60.1 V 0 c 0,-36.51 19.379,-57.854 52.518,-57.854 C -19.097,-57.854 0,-36.51 0,0 m -132.838,-0.562 v 3.651 c 0,17.974 3.651,32.578 10.391,45.497 14.042,24.714 39.037,38.194 69.93,38.194 15.727,0 29.488,-3.37 41.564,-10.11 C 13.481,63.471 27.803,38.476 27.803,3.089 v -3.651 c 0,-17.412 -3.37,-31.735 -9.829,-44.091 -13.48,-24.434 -37.633,-37.634 -70.491,-37.634 -51.113,0 -80.321,30.051 -80.321,81.725" /></g></g></g></g><g
           id="g36"><g
             id="g38" /><g
             id="g48"><g
               id="g46"
               clip-path="url(#clipPath42)"><path
                 id="path44"
                 style="fill:#2666ef;fill-opacity:1;fill-rule:nonzero;stroke:none"
                 d="m 364.342,288.424 h 27.242 V 73.58 h -27.242 z" /></g></g></g><g
           id="g50"><g
             id="g52" /><g
             id="g62"><g
               id="g60"
               clip-path="url(#clipPath56)"><path
                 id="path58"
                 style="fill:#2666ef;fill-opacity:1;fill-rule:nonzero;stroke:none"
                 d="m 424.721,288.424 h 27.242 V 73.58 h -27.242 z" /></g></g></g><g
           id="g64"><g
             id="g66" /><g
             id="g78"><g
               id="g76"
               clip-path="url(#clipPath70)"><g
                 id="g74"
                 transform="translate(501.9528,166.2578)"><path
                   id="path72"
                   style="fill:#2666ef;fill-opacity:1;fill-rule:nonzero;stroke:none"
                   d="M 0,0 H 103.912 C 101.665,30.612 84.814,49.99 53.922,49.99 23.029,49.99 3.37,31.174 0,0 m 52.799,-96.891 c -53.36,0 -80.04,31.455 -80.04,81.445 v 3.37 c 0,16.85 3.369,31.455 9.829,44.373 13.2,25.276 37.914,39.88 71.053,39.88 17.693,0 32.297,-3.652 43.53,-11.234 C 120.2,45.777 131.153,20.221 131.153,-8.706 V -21.625 H -0.281 c 1.966,-33.139 21.064,-52.236 54.203,-52.236 23.31,0 39.598,10.11 45.496,28.926 h 29.489 C 119.639,-78.073 92.678,-96.891 52.799,-96.891" /></g></g></g></g><g
           id="g80"><g
             id="g82" /><g
             id="g94"><g
               id="g92"
               clip-path="url(#clipPath86)"><g
                 id="g90"
                 transform="translate(766.1376,181.9853)"><path
                   id="path88"
                   style="fill:#2666ef;fill-opacity:1;fill-rule:nonzero;stroke:none"
                   d="m 0,0 v 0.562 c 0,8.987 -2.247,16.007 -5.898,21.343 -7.583,10.672 -20.501,14.324 -35.667,14.324 -2.527,0 -4.212,-0.282 -6.178,-0.562 C -70.772,34.263 -85.657,21.625 -85.376,0.281 v -0.562 c 0,-21.906 14.885,-33.982 41.565,-33.982 C -15.166,-34.263 0,-21.906 0,0 m 12.357,-129.749 c 0,14.042 -9.83,23.31 -37.352,23.31 h -29.769 c -25.557,-1.966 -37.914,-12.357 -37.914,-27.803 v -0.281 c 0,-14.042 12.919,-24.714 43.811,-24.714 h 5.056 c 40.16,0 56.168,11.795 56.168,29.488 M -90.15,-177.211 c -21.344,6.459 -29.208,18.255 -29.208,34.543 0,17.693 10.953,30.612 36.229,37.071 -20.782,3.09 -30.331,13.481 -30.331,28.646 0,15.727 12.076,26.961 35.667,31.174 -23.31,6.74 -34.824,21.906 -34.824,46.339 v 0.281 c 0,29.768 20.782,48.585 58.134,52.236 3.089,0.843 10.672,1.123 14.322,1.123 10.672,0.843 17.974,1.966 23.311,3.932 10.671,4.494 12.918,12.357 12.918,25.838 v 3.089 h 30.893 v -4.775 c 0,-7.582 -1.405,-13.761 -3.932,-18.535 C 17.693,53.922 5.055,49.428 -18.536,48.586 h 0.562 C -8.144,47.462 0,44.373 6.74,39.88 20.22,30.611 27.242,16.851 27.242,1.404 V 0.281 c 0,-33.982 -26.399,-54.764 -71.053,-54.764 h -5.336 c -10.953,0 -19.378,-0.562 -24.995,-1.966 -11.796,-2.247 -15.166,-7.022 -15.166,-13.481 0,-8.987 7.583,-13.76 27.804,-13.48 h 37.632 c 43.25,0 61.505,-17.132 61.505,-44.935 0,-32.015 -24.433,-53.64 -81.725,-53.64 h -2.528 c -18.535,0 -32.858,1.684 -43.53,4.774" /></g></g></g></g><g
           id="g96"><g
             id="g98" /><g
             id="g110"><g
               id="g108"
               clip-path="url(#clipPath102)"><g
                 id="g106"
                 transform="translate(835.7875,166.2578)"><path
                   id="path104"
                   style="fill:#2666ef;fill-opacity:1;fill-rule:nonzero;stroke:none"
                   d="M 0,0 H 103.911 C 101.665,30.612 84.814,49.99 53.922,49.99 23.029,49.99 3.37,31.174 0,0 m 52.798,-96.891 c -53.36,0 -80.04,31.455 -80.04,81.445 v 3.37 c 0,16.85 3.37,31.455 9.83,44.373 13.199,25.276 37.913,39.88 71.053,39.88 17.693,0 32.297,-3.652 43.53,-11.234 C 120.2,45.777 131.153,20.221 131.153,-8.706 V -21.625 H -0.281 c 1.966,-33.139 21.063,-52.236 54.203,-52.236 23.309,0 39.598,10.11 45.496,28.926 h 29.488 C 119.639,-78.073 92.678,-96.891 52.798,-96.891" /></g></g></g></g></g></g><g
       transform="translate(18.1801,273.4609)"
       id="g112"><path
         id="path114"
         style="fill:#2666ef;fill-opacity:1;fill-rule:nonzero;stroke:none"
         d="M 0,0 V -24.74 H 108.12 L 59.05,-88.29 h 32.93 l 48.47,63.27 V 0 Z M 75.04,-110.41 H 41.96 l -51.07,-66.14 v -23.33 h 149.56 v 25.86 H 26.31 Z" /></g><g
       transform="translate(110.16,185.1709)"
       id="g116"><path
         id="path118"
         style="fill:#022ece;fill-opacity:1;fill-rule:nonzero;stroke:none"
         d="M 0,0 -16.94,-22.12 H -50.02 L -32.93,0 Z" /></g><g
       transform="translate(0,185.1705)"
       id="g120"><path
         id="path122"
         style="fill:#2666ef;fill-opacity:1;fill-rule:nonzero;stroke:none"
         d="M 0,0 V -22.119 H 60.14 L 77.23,0 Z" /></g><g
       transform="translate(158.6298,185.1709)"
       id="g124"><path
         id="path126"
         style="fill:#2666ef;fill-opacity:1;fill-rule:nonzero;stroke:none"
         d="M 0,0 V -22.12 H -65.41 L -48.47,0 Z" /></g></g></svg>